<svg width="596" height="596" viewBox="0 0 596 596" fill="none" xmlns="http://www.w3.org/2000/svg">
<g clip-path="url(#clip0_12_200)">
<path d="M313 595.5C388.306 591.61 461.02 559.306 513.271 504.663C565.521 450.02 595.094 377.422 595.972 301.64C596.85 225.858 568.967 152.588 517.997 96.7367C467.026 40.8859 388.195 5.65168 313 0V73.5C369.854 77.7732 426.163 103.64 464.701 145.868C503.24 188.097 524.322 243.496 523.658 300.794C522.994 358.091 500.634 412.982 461.128 454.297C421.622 495.612 369.938 520.059 313 523V595.5Z" fill="url(#paint0_linear_12_200)"/>
<path d="M99.0002 520.5C150.227 564.574 213.492 592.934 281 596V523.5C225.5 518.5 191.5 503 150 470L99.0002 520.5Z" fill="url(#paint1_linear_12_200)"/>
<path d="M0.509725 312.478C8.00971 386.478 30.0861 445.87 76.5097 494.978L128.01 443.478C93.0097 402.978 78.1937 363.135 73.5097 312.478L0.509725 312.478Z" fill="url(#paint2_linear_12_200)"/>
<g clip-path="url(#clip1_12_200)">
<mask id="path-4-inside-1_12_200" fill="white">
<path d="M247.387 156.363C247.387 128.548 269.935 106 297.75 106V106C325.565 106 348.113 128.548 348.113 156.363V186.581H247.387V156.363Z"/>
</mask>
<path d="M234.293 156.363C234.293 121.316 262.704 92.9057 297.75 92.9057H297.75C332.796 92.9057 361.207 121.316 361.207 156.363L335.019 156.363C335.019 135.78 318.333 119.094 297.75 119.094H297.75C277.167 119.094 260.482 135.78 260.482 156.363L234.293 156.363ZM348.113 186.581H247.387H348.113ZM234.293 186.581V156.363C234.293 121.316 262.704 92.9057 297.75 92.9057L297.75 119.094C277.167 119.094 260.482 135.78 260.482 156.363V186.581H234.293ZM297.75 92.9057C332.796 92.9057 361.207 121.316 361.207 156.363V186.581H335.019V156.363C335.019 135.78 318.333 119.094 297.75 119.094L297.75 92.9057Z" fill="white" mask="url(#path-4-inside-1_12_200)"/>
<path d="M182.371 206.337C183.107 195.221 192.337 186.581 203.477 186.581H396.682C407.976 186.581 417.278 195.453 417.811 206.734L428.253 427.685C428.904 441.468 417.904 453 404.105 453H191.878C177.899 453 166.833 441.179 167.756 427.23L182.371 206.337Z" fill="white"/>
</g>
</g>
<defs>
<linearGradient id="paint0_linear_12_200" x1="533.5" y1="210.5" x2="221.5" y2="536.5" gradientUnits="userSpaceOnUse">
<stop stop-color="#00DC81"/>
<stop offset="1" stop-color="#0DC48E"/>
</linearGradient>
<linearGradient id="paint1_linear_12_200" x1="146" y1="476.5" x2="278.5" y2="587.5" gradientUnits="userSpaceOnUse">
<stop stop-color="#148675"/>
<stop offset="1" stop-color="#0DC48E"/>
</linearGradient>
<linearGradient id="paint2_linear_12_200" x1="37.5003" y1="315" x2="77.0003" y2="492" gradientUnits="userSpaceOnUse">
<stop stop-color="#354A5E"/>
<stop offset="1" stop-color="#148675"/>
</linearGradient>
<clipPath id="clip0_12_200">
<rect width="596" height="596" fill="white"/>
</clipPath>
<clipPath id="clip1_12_200">
<rect width="263.398" height="347" fill="white" transform="translate(166.051 106)"/>
</clipPath>
</defs>
</svg>
